<?xml version="1.0" encoding="utf-8"?>
<!-- Generator: Adobe Illustrator 22.1.0, SVG Export Plug-In . SVG Version: 6.00 Build 0)  -->
<svg version="1.1" id="图层_1" xmlns="http://www.w3.org/2000/svg" xmlns:xlink="http://www.w3.org/1999/xlink" x="0px" y="0px"
	 viewBox="0 0 32 32" style="enable-background:new 0 0 32 32;" xml:space="preserve">
<path d="M25.6,1.7L19,11.6c-0.5,0.7,0.4,1.5,1.1,0.9l6.6-5.7C26.8,6.6,27,6.7,27,7v17.9c0,0.2-0.3,0.4-0.5,0.2L6.7,1.2
	C6,0.4,5.1,0,4.1,0H3.4C1.5,0,0,1.5,0,3.4v25.1C0,30.5,1.5,32,3.4,32c1.2,0,2.3-0.6,2.9-1.6l6.7-9.9c0.5-0.7-0.4-1.5-1.1-0.9
	l-6.6,5.7c-0.2,0.1-0.4,0-0.4-0.2V7.2c0-0.2,0.3-0.4,0.5-0.2l19.9,23.8c0.6,0.8,1.6,1.2,2.6,1.2h0.7c1.9,0,3.4-1.5,3.4-3.4V3.4
	C32,1.5,30.4,0,28.6,0C27.4,0,26.3,0.6,25.6,1.7z"/>
</svg>
