<?xml version="1.0" encoding="utf-8"?>
<!-- Generator: Adobe Illustrator 22.1.0, SVG Export Plug-In . SVG Version: 6.00 Build 0)  -->
<svg version="1.1" id="图层_1" xmlns="http://www.w3.org/2000/svg" xmlns:xlink="http://www.w3.org/1999/xlink" x="0px" y="0px"
	 viewBox="0 0 164 36" style="enable-background:new 0 0 164 36;" xml:space="preserve">
<style type="text/css">
	.st0{fill:#3A3A3A;}
	.st1{fill:#3458F1;}
	.st2{fill:#FFFFFF;}
	.st3{fill:#1B262C;}
	.st4{fill:#C6C6C6;}
	.st5{fill:#1FC399;}
</style>
<g>
	<g>
		<path class="st0" d="M141.2,26c-0.1-0.1-0.2-0.2-0.2-0.3c0-0.1-0.1-0.3-0.1-0.6v-9.5l-0.9,0.2v9.3c0,0.4,0,0.7,0.1,0.9
			c0.1,0.2,0.2,0.4,0.4,0.6c0.2,0.2,0.4,0.3,0.6,0.3c0.2,0.1,0.5,0.1,0.8,0.1l0.1-0.8c-0.2,0-0.4-0.1-0.5-0.1
			C141.4,26.1,141.2,26,141.2,26z"/>
		<path class="st0" d="M147.9,20c-0.2-0.2-0.5-0.4-0.8-0.6c-0.3-0.1-0.8-0.2-1.3-0.2c-0.5,0-0.9,0-1.2,0.1c-0.3,0.1-0.6,0.1-0.8,0.2
			l0.1,0.8c0.1,0,0.3-0.1,0.6-0.2c0.3-0.1,0.7-0.1,1.2-0.1c0.4,0,0.7,0.1,0.9,0.2c0.2,0.1,0.4,0.3,0.6,0.5c0.1,0.2,0.2,0.4,0.3,0.7
			c0,0.2,0.1,0.5,0.1,0.8v0.5c0,0-0.1,0-0.2-0.1c-0.1,0-0.2,0-0.4-0.1c-0.1,0-0.3,0-0.4-0.1c-0.2,0-0.3,0-0.4,0
			c-0.5,0-0.9,0-1.3,0.1c-0.4,0.1-0.7,0.2-1,0.4c-0.3,0.2-0.5,0.4-0.7,0.7c-0.2,0.3-0.2,0.6-0.2,1c0,0.4,0.1,0.8,0.2,1.1
			c0.1,0.3,0.3,0.5,0.6,0.7c0.2,0.2,0.5,0.3,0.9,0.4c0.3,0.1,0.7,0.1,1.1,0.1c0.3,0,0.6,0,0.9,0c0.3,0,0.6-0.1,0.8-0.1
			c0.2,0,0.5-0.1,0.6-0.1c0.2,0,0.3-0.1,0.4-0.1V22c0-0.4,0-0.8-0.1-1.1C148.3,20.5,148.1,20.2,147.9,20z M147.6,26.1
			c-0.2,0-0.4,0.1-0.7,0.1c-0.3,0-0.6,0-1,0c-0.3,0-0.6,0-0.8-0.1c-0.2-0.1-0.4-0.1-0.6-0.3c-0.2-0.1-0.3-0.3-0.4-0.5
			c-0.1-0.2-0.1-0.4-0.1-0.7c0-0.3,0.1-0.6,0.2-0.8c0.1-0.2,0.3-0.3,0.5-0.5c0.2-0.1,0.4-0.2,0.7-0.2c0.3,0,0.5-0.1,0.7-0.1
			c0.4,0,0.7,0,1,0.1c0.2,0.1,0.4,0.1,0.5,0.2V26.1z"/>
		<path class="st0" d="M156.3,20.3c-0.3-0.3-0.6-0.6-1.1-0.8c-0.4-0.2-0.9-0.3-1.4-0.3c-0.5,0-0.9,0.1-1.3,0.2s-0.6,0.3-0.8,0.4
			v-4.2l-0.9,0.2v10.9c0.3,0.1,0.6,0.2,1.1,0.3c0.4,0.1,1,0.1,1.7,0.1c0.6,0,1.1-0.1,1.5-0.3c0.5-0.2,0.8-0.4,1.2-0.8
			c0.3-0.3,0.6-0.8,0.8-1.2c0.2-0.5,0.3-1,0.3-1.6c0-0.6-0.1-1.1-0.2-1.6C156.8,21.1,156.6,20.7,156.3,20.3z M155.5,25.4
			c-0.5,0.5-1.1,0.8-2,0.8c-0.5,0-0.8,0-1.1-0.1s-0.5-0.1-0.6-0.1v-5.3c0.1-0.1,0.2-0.1,0.3-0.2c0.1-0.1,0.3-0.1,0.5-0.2
			c0.2-0.1,0.4-0.1,0.6-0.2c0.2,0,0.4-0.1,0.6-0.1c0.5,0,0.9,0.1,1.2,0.2c0.3,0.2,0.6,0.4,0.8,0.7c0.2,0.3,0.3,0.6,0.4,1
			c0.1,0.4,0.1,0.8,0.1,1.2C156.2,24.1,156,24.9,155.5,25.4z"/>
		<path class="st0" d="M163.3,24.1c-0.1-0.2-0.3-0.4-0.5-0.6c-0.2-0.2-0.4-0.3-0.7-0.4c-0.3-0.1-0.5-0.2-0.8-0.4
			c-0.3-0.1-0.5-0.2-0.7-0.3c-0.2-0.1-0.4-0.2-0.6-0.3c-0.2-0.1-0.3-0.2-0.3-0.4c-0.1-0.1-0.1-0.3-0.1-0.5c0-0.2,0-0.4,0.1-0.5
			c0.1-0.1,0.2-0.3,0.3-0.3s0.3-0.2,0.5-0.2c0.2,0,0.4-0.1,0.6-0.1c0.5,0,0.9,0,1.2,0.1c0.3,0.1,0.5,0.2,0.6,0.2l0.2-0.8
			c-0.1-0.1-0.4-0.1-0.7-0.2c-0.3-0.1-0.8-0.1-1.3-0.1c-0.8,0-1.4,0.2-1.9,0.6c-0.5,0.4-0.7,0.9-0.7,1.5c0,0.3,0.1,0.6,0.2,0.8
			c0.1,0.2,0.3,0.4,0.5,0.6c0.2,0.2,0.4,0.3,0.7,0.4c0.3,0.1,0.5,0.2,0.8,0.4c0.3,0.1,0.6,0.3,0.9,0.4c0.2,0.1,0.4,0.2,0.6,0.3
			c0.1,0.1,0.2,0.2,0.3,0.4c0.1,0.1,0.1,0.3,0.1,0.5c0,0.4-0.2,0.7-0.5,0.9c-0.4,0.2-0.8,0.3-1.3,0.3c-0.3,0-0.6,0-0.8-0.1
			c-0.2,0-0.4-0.1-0.6-0.1c-0.2-0.1-0.3-0.1-0.4-0.1c-0.1,0-0.2-0.1-0.2-0.1l-0.2,0.9c0.1,0.1,0.3,0.1,0.7,0.3
			c0.3,0.1,0.9,0.2,1.5,0.2c0.9,0,1.6-0.2,2.1-0.5c0.5-0.3,0.8-0.9,0.8-1.5C163.5,24.6,163.4,24.3,163.3,24.1z"/>
		<path class="st0" d="M64,17.6c-0.1,0-0.2-0.2-0.2-0.3c0-0.1,0.1-0.3,0.2-0.4c0.7-0.3,1.2-0.8,1.6-1.3c0.4-0.5,0.5-1.2,0.5-2
			c0-0.8-0.2-1.6-0.5-2.1c-0.3-0.6-0.8-1-1.5-1.4c-0.6-0.4-1.4-0.6-2.3-0.8c-0.9-0.2-1.9-0.2-3-0.2c-0.4,0-0.8,0-1.2,0
			c-0.4,0-0.9,0-1.3,0.1c-0.4,0-0.9,0.1-1.3,0.1c-0.3,0-0.6,0.1-0.9,0.1v16.8c0.6,0.1,1.4,0.2,2.2,0.3c1,0.1,1.9,0.1,2.9,0.1
			c2.7,0,4.7-0.4,6-1.3c1.3-0.9,1.9-2.1,1.9-3.9c0-1-0.2-1.8-0.7-2.5C65.7,18.4,65,17.9,64,17.6z M56.5,11.5c0-0.2,0.1-0.3,0.3-0.4
			c0.3,0,0.6-0.1,1-0.1c0.4,0,0.8,0,1.3,0c1.2,0,2.2,0.2,3,0.6c0.9,0.4,1.3,1.2,1.3,2.2c0,1.1-0.4,1.8-1.3,2.2
			c-0.8,0.4-1.8,0.6-3.1,0.6h-2.3c-0.2,0-0.4-0.2-0.4-0.4V11.5z M63.8,23.1c-0.3,0.4-0.7,0.7-1.1,1c-0.5,0.2-1,0.4-1.6,0.5
			c-0.6,0.1-1.2,0.1-1.9,0.1c-0.4,0-0.7,0-1.2,0c-0.4,0-0.8,0-1.2-0.1c-0.2,0-0.3-0.2-0.3-0.4v-5.5c0-0.2,0.2-0.4,0.4-0.4h2.9
			c1.4,0,2.5,0.2,3.3,0.6c0.9,0.5,1.3,1.3,1.3,2.4C64.3,22.2,64.1,22.7,63.8,23.1z"/>
		<path class="st0" d="M85.8,15.2c-0.5-0.6-1.2-1-1.9-1.3c-0.8-0.3-1.6-0.5-2.5-0.5c-0.9,0-1.7,0.2-2.5,0.5
			c-0.7,0.3-1.4,0.8-1.9,1.3c-0.5,0.6-1,1.3-1.3,2.1c-0.3,0.8-0.5,1.8-0.5,2.8c0,1,0.2,2,0.5,2.8c0.3,0.8,0.7,1.5,1.3,2.1
			c0.5,0.6,1.2,1,1.9,1.4c0.7,0.3,1.6,0.5,2.5,0.5c0.9,0,1.8-0.2,2.5-0.5c0.8-0.3,1.4-0.8,1.9-1.4c0.5-0.6,1-1.3,1.2-2.1
			c0.3-0.8,0.4-1.8,0.4-2.8c0-1-0.2-2-0.5-2.8C86.7,16.5,86.3,15.8,85.8,15.2z M84.1,23.6c-0.6,0.9-1.6,1.3-2.7,1.3
			c-1.2,0-2.1-0.5-2.7-1.3c-0.6-0.9-0.9-2-0.9-3.4c0-1.4,0.3-2.6,0.9-3.4c0.6-0.9,1.6-1.3,2.7-1.3c1.2,0,2.1,0.4,2.7,1.3
			c0.6,0.8,0.9,2,0.9,3.4C85,21.5,84.7,22.7,84.1,23.6z"/>
		<path class="st0" d="M97.8,24.7c-0.5,0.1-1.1,0.2-1.7,0.2c-1.5,0-2.7-0.4-3.3-1.3c-0.7-0.8-1-2-1-3.4c0-1.5,0.4-2.7,1-3.5
			c0.7-0.9,1.7-1.3,3.1-1.3c0.5,0,1.1,0.1,1.5,0.2c0.3,0.1,0.6,0.2,0.9,0.3l0.5-1.9c-1-0.4-2.1-0.6-3.2-0.6c-1,0-1.9,0.2-2.6,0.5
			c-0.8,0.3-1.4,0.8-2,1.4c-0.5,0.6-1,1.3-1.3,2.1c-0.3,0.8-0.4,1.7-0.4,2.7c0,1,0.1,1.9,0.4,2.7c0.3,0.8,0.7,1.5,1.2,2.1
			c0.5,0.6,1.2,1.1,2,1.4c0.8,0.3,1.8,0.5,2.9,0.5c0.7,0,1.4-0.1,2.1-0.2c0.5-0.1,0.9-0.2,1.2-0.3l-0.3-1.9
			C98.5,24.6,98.2,24.6,97.8,24.7z"/>
		<path class="st0" d="M125.6,10.5c-1.3-0.9-3.3-1.4-5.8-1.4c-0.8,0-1.6,0-2.5,0.1c-0.8,0.1-1.5,0.1-2.2,0.3v17h2.5v-6
			c0-0.2,0.2-0.4,0.4-0.4h1.6c1.3,0,2.4-0.1,3.4-0.3c1-0.2,1.8-0.5,2.5-1c0.7-0.4,1.2-1,1.5-1.7c0.3-0.7,0.5-1.6,0.5-2.5
			C127.5,12.7,126.9,11.4,125.6,10.5z M123.4,17.4c-0.9,0.5-2.2,0.7-3.8,0.7H118c-0.2,0-0.4-0.2-0.4-0.4v-6.1c0-0.2,0.1-0.3,0.3-0.4
			c0.6-0.1,1.3-0.1,2.1-0.1c0.6,0,1.2,0,1.8,0.1c0.6,0.1,1.1,0.3,1.5,0.5c0.5,0.3,0.8,0.6,1.1,1.1c0.3,0.5,0.4,1,0.4,1.7
			C124.8,16,124.3,16.9,123.4,17.4z"/>
		<path class="st0" d="M72.4,24.2c-0.2-0.2-0.3-0.5-0.4-0.8c-0.1-0.3-0.1-0.6-0.1-1V9.3l-2.4,0.6v13c0,0.6,0.1,1.2,0.2,1.7
			c0.1,0.5,0.4,0.9,0.7,1.2c0.3,0.3,0.8,0.6,1.3,0.7c0.5,0.2,1.1,0.3,1.9,0.3l0.2-1.1l0.1-0.8c-0.3,0-0.5-0.1-0.7-0.2
			C72.9,24.6,72.6,24.4,72.4,24.2z"/>
		<path class="st0" d="M110.6,23.1c-0.5-0.7-1.1-1.3-1.6-1.9c-0.6-0.6-1.1-1.1-1.6-1.5c-0.1-0.1-0.1-0.2-0.1-0.3
			c0-0.1,0-0.2,0.1-0.3c1-1,1.9-2,2.9-3c0.8-0.8,1.5-1.6,2.2-2.4h-2.7c-0.3,0.3-0.6,0.6-0.9,1c-0.4,0.4-0.8,0.9-1.2,1.4
			c-0.4,0.5-0.9,1-1.3,1.4c-0.4,0.5-0.9,0.9-1.3,1.3c-0.1,0.1-0.2,0.1-0.3,0.1c0,0-0.1,0-0.1,0c-0.1-0.1-0.2-0.2-0.2-0.3V9.3
			L102,9.9v16.7h2.4v-5.8c0-0.1,0.1-0.3,0.2-0.3c0.1,0,0.1,0,0.2,0c0.1,0,0.2,0,0.2,0.1c0.5,0.4,1,0.8,1.5,1.3c0.5,0.5,1,1,1.4,1.6
			c0.5,0.6,0.9,1.1,1.3,1.7c0.4,0.5,0.7,1,1,1.5h2.8c-0.2-0.4-0.5-0.9-0.8-1.3C111.7,24.5,111.2,23.8,110.6,23.1z"/>
		<polygon class="st0" points="129.9,26.5 132.5,26.5 132.5,9.3 129.9,9.9 		"/>
	</g>
	<path class="st5" d="M40.2,7.3c0,0,0-0.1,0-0.1c0,0,0-0.1,0-0.1c0,0,0,0,0,0c0,0,0-0.1,0-0.1c0,0,0,0,0-0.1c0-0.1-0.1-0.1-0.1-0.2
		c0,0,0,0,0,0c0,0-0.1-0.1-0.1-0.1c0,0,0,0,0,0l-6.4-5.2c0,0,0,0,0,0c-0.1,0-0.1-0.1-0.2-0.1c0,0,0,0-0.1,0C33,1,33,1,32.9,1
		c0,0,0,0,0,0c-0.1,0-0.1,0-0.2,0c0,0,0,0-0.1,0c0,0,0,0-0.1,0L1.1,9C1.1,9,1,9,1,9c0,0,0,0,0,0c0,0,0,0,0,0c-0.1,0-0.2,0.1-0.2,0.1
		c0,0,0,0,0,0c-0.1,0-0.1,0.1-0.1,0.2c0,0,0,0,0,0c0,0.1-0.1,0.1-0.1,0.2c0,0,0,0,0,0.1c0,0.1,0,0.1,0,0.2c0,0,0,0,0,0l-0.1,6.7
		c0,0,0,0,0,0.1c0,0,0,0.1,0,0.1c0,0,0,0.1,0,0.1c0,0,0,0.1,0,0.1c0,0,0,0.1,0,0.1c0,0,0,0.1,0.1,0.1c0,0,0,0.1,0.1,0.1
		c0,0,0.1,0.1,0.1,0.1c0,0,0,0,0.1,0.1l0.1,0.1c1.1,0.9,3.9,3.7,3.8,5.9c0,2.2-0.1,5.7-0.1,5.8c0,0.3,0.1,0.6,0.4,0.8l5.8,4.9
		c0,0,0,0,0,0c0,0,0.1,0,0.1,0.1c0,0,0,0,0.1,0c0,0,0.1,0,0.1,0c0,0,0,0,0.1,0c0,0,0.1,0,0.1,0c0,0,0,0,0,0c0.1,0,0.1,0,0.2,0
		c0,0,0,0,0,0c0.1,0,0.2,0,0.2,0c0,0,0,0,0,0l6.4-1.6c0.5-0.1,0.8-0.5,0.8-1l0.1-9.5c0-0.3,0.2-2.6,2.1-4c1.5,0.3,1.5,1.6,1.4,2
		c0,0,0,0.1,0,0.1l0,3.6c0,0.3,0.1,0.6,0.4,0.8l5.7,4.8c0,0,0,0,0,0c0,0,0,0,0.1,0c0,0,0.1,0,0.1,0.1c0,0,0.1,0,0.1,0
		c0,0,0.1,0,0.1,0c0,0,0.1,0,0.1,0c0,0,0.1,0,0.1,0c0,0,0,0,0,0c0,0,0,0,0,0c0.1,0,0.2,0,0.2,0c0,0,0,0,0,0l6.3-1.6
		c0.5-0.1,0.8-0.5,0.8-1l0.1-9.1c0,0,0,0,0,0c0-0.3,0.1-2.5,2.8-3.8c0.1,0,0.2,0,0.2-0.1c0.4-0.2,0.6-0.5,0.6-0.9L40.2,7.3
		C40.2,7.3,40.2,7.3,40.2,7.3z M8.1,14.1l-4.4-3.6l28-7.1l-0.1,4.7L8.1,14.1z M2.3,16.2l0-4l4.4,3.6l0,4L2.3,16.2z M33.8,4.2
		l3.1,2.6l-3.2,0.8L33.8,4.2z M38.1,8.6l0,3.2L35,9.4L38.1,8.6z M6.5,22.3l0.6,0.5c0,0,0,0,0,0c0,0,0,0,0.1,0c0,0,0.1,0,0.1,0.1
		c0,0,0,0,0.1,0c0,0,0.1,0,0.1,0c0,0,0,0,0,0c1,0.2,2.7,1.4,2.8,3l-0.1,6l-3.7-3.1c0-1.1,0.1-3.6,0.1-5.3
		C6.6,23.1,6.6,22.7,6.5,22.3z M23.6,18.3c-0.1-0.1-0.1-0.2-0.2-0.2c0,0,0,0,0,0c1.2-0.2,2.2,0.1,3,0.7c1.5,1.3,1.7,3.7,1.7,4
		L28,27.3l-3.7-3.1l0-3C24.4,20.8,24.5,19.4,23.6,18.3z M34.4,18.8C34.4,18.8,34.4,18.8,34.4,18.8l-0.1,8.4l-4.2,1l0.1-5.5
		c0,0,0,0,0-0.1c0-0.1-0.2-3.6-2.5-5.5c-1.2-1-2.8-1.4-4.6-1.2c-4.9,0.6-6.4,4.8-6.5,6.9c0,0,0,0,0,0l-0.1,8.7l-4.3,1.1l0.1-6.9
		c0,0,0,0,0-0.1c-0.1-2.2-2-3.9-3.6-4.6L8.9,16l23.6-6l4.8,3.8C34.6,15.7,34.4,18.3,34.4,18.8z"/>
</g>
</svg>
